<?xml version="1.0" encoding="UTF-8"?>
<svg id="Layer_2" data-name="Layer 2" xmlns="http://www.w3.org/2000/svg" viewBox="0 0 118.47 35.63">
  <defs>
    <style>
      .cls-1 {
        fill: #fff;
      }
    </style>
  </defs>
  <g id="Layer_1-2" data-name="Layer 1">
    <path class="cls-1" d="M0,24.71l2.81-3.47c2.46,2.22,5.3,3.62,8.81,3.62,3.31,0,5.03-1.64,5.03-3.55,0-2.22-1.91-2.96-6.2-3.97-5.54-1.29-9.39-2.89-9.39-7.91C1.05,4.75,5.03,1.32,10.68,1.32c4.25,0,7.44,1.44,10.14,3.74l-2.65,3.59c-2.34-2.03-5.03-3.16-7.68-3.16s-4.52,1.64-4.52,3.51c0,2.18,1.99,2.96,6.24,3.94,5.58,1.25,9.32,3.04,9.32,7.91s-3.66,8.19-10.06,8.19c-4.6,0-8.5-1.56-11.46-4.33ZM25.51,2.69c0-1.44,1.21-2.69,2.73-2.69s2.69,1.25,2.69,2.69-1.21,2.73-2.69,2.73-2.73-1.29-2.73-2.73Zm.31,5.77h4.75V28.61h-4.75V8.46Zm36.02-.47c-2.65,0-4.99,1.29-6.24,3.16v-2.69h-4.76v3c-1.44-2.14-4.05-3.47-6.9-3.47-5.22,0-9.08,3.94-9.08,9.55s3.86,9.59,9.08,9.59c2.88,0,5.3-1.29,6.9-3.43v2.61c0,3.04-2.49,4.95-6.47,4.95-2.38,0-4.79-.82-6.2-2.1l-1.75,3.47c1.99,1.56,5.18,2.69,8.65,2.69,5.99,0,10.26-3.48,10.48-8.44l.04-.02v-.37s0,0,0-.01V15.86c.32-2.14,2.38-3.82,4.87-3.82s4.25,1.95,4.25,4.68v11.89h4.6V15.78c0-4.56-3.08-7.8-7.48-7.8Zm-16.53,15.09c-3.2,0-5.5-2.3-5.5-5.54s2.3-5.5,5.5-5.5,5.54,2.3,5.54,5.5-2.3,5.54-5.54,5.54ZM74.17,2.69c0-1.44,1.21-2.69,2.73-2.69s2.69,1.25,2.69,2.69-1.21,2.73-2.69,2.73-2.73-1.29-2.73-2.73Zm.31,5.77h4.75V28.61h-4.75V8.46Zm16.1,0h4.56v3.94h-4.56V28.61h-4.64V12.39h-2.92v-3.94h2.92v-2.11c0-3.39,2.34-5.81,5.69-5.81,1.52,0,3.16,.63,4.29,1.6l-1.36,3.04c-.43-.43-1.17-.74-1.99-.74-1.13,0-1.99,.97-1.99,2.34v1.68Zm8.04,26.12l1.01-3.43c.86,.47,1.83,.74,2.57,.74,1.13,0,1.99-.35,2.57-1.33l.86-1.79-8.54-20.31h5.03l5.89,15.05,5.54-15.05h4.91l-8.54,21.56c-1.52,3.82-3.86,5.57-6.9,5.62-1.52,0-3.2-.39-4.41-1.05Z"/>
  </g>
</svg>